<svg width="33" height="33" viewBox="0 0 33 33" fill="none" xmlns="http://www.w3.org/2000/svg">
<path d="M17.3765 24.319C21.3228 23.8269 24.3765 20.4605 24.3765 16.3809C24.3765 11.9626 20.7948 8.38086 16.3765 8.38086C11.9582 8.38086 8.37646 11.9626 8.37646 16.3809C8.37646 20.4605 11.4302 23.8269 15.3765 24.319V18.3809H13.3765V16.3809H15.3765V14.7267C15.3765 13.3894 15.5157 12.9045 15.7772 12.4156C16.0386 11.9267 16.4223 11.543 16.9112 11.2816C17.2939 11.0769 17.7686 10.9534 18.5982 10.9004C18.9274 10.8794 19.3536 10.9062 19.8765 10.9809V12.8809H19.3765C18.4592 12.8809 18.0807 12.9242 17.8544 13.0452C17.7141 13.1202 17.6159 13.2184 17.5408 13.3588C17.4198 13.585 17.3765 13.8094 17.3765 14.7267V16.3809H19.8765L19.3765 18.3809H17.3765V24.319ZM16.3765 26.3809C10.8536 26.3809 6.37646 21.9037 6.37646 16.3809C6.37646 10.858 10.8536 6.38086 16.3765 6.38086C21.8993 6.38086 26.3765 10.858 26.3765 16.3809C26.3765 21.9037 21.8993 26.3809 16.3765 26.3809Z" fill="#2D88D7"/>
</svg>
