<svg width="33" height="33" viewBox="0 0 33 33" fill="none" xmlns="http://www.w3.org/2000/svg">
<path d="M16.7134 15.4014H25.2463C25.2903 15.7861 25.3134 16.1806 25.3134 16.5851C25.3134 19.3198 24.3338 21.6218 22.6358 23.1851C21.1501 24.5565 19.1174 25.3606 16.693 25.3606C13.1827 25.3606 10.146 23.3484 8.66848 20.4137C8.06033 19.2014 7.71338 17.83 7.71338 16.381C7.71338 14.932 8.06033 13.5606 8.66848 12.3483C10.146 9.41363 13.1827 7.40137 16.693 7.40137C19.1134 7.40137 21.146 8.2912 22.7011 9.74015L21.2389 11.2024C20.0816 10.0829 18.5162 9.40137 16.7134 9.40137C12.8474 9.40137 9.71338 12.5354 9.71338 16.4014C9.71338 20.2674 12.8474 23.4014 16.7134 23.4014C20.2399 23.4014 22.8577 20.7937 23.2904 17.4014H16.7134V15.4014Z" fill="#2D88D7"/>
</svg>
