<svg width="33" height="33" viewBox="0 0 33 33" fill="none" xmlns="http://www.w3.org/2000/svg">
<path d="M16.3765 13.3809C14.7191 13.3809 13.3765 14.724 13.3765 16.3809C13.3765 18.0382 14.7196 19.3809 16.3765 19.3809C18.0338 19.3809 19.3765 18.0378 19.3765 16.3809C19.3765 14.7236 18.0334 13.3809 16.3765 13.3809ZM16.3765 11.3809C19.1369 11.3809 21.3765 13.618 21.3765 16.3809C21.3765 19.1414 19.1394 21.3809 16.3765 21.3809C13.616 21.3809 11.3765 19.1438 11.3765 16.3809C11.3765 13.6204 13.6136 11.3809 16.3765 11.3809ZM22.8765 11.13C22.8765 11.8201 22.3157 12.38 21.6265 12.38C20.9364 12.38 20.3765 11.8193 20.3765 11.13C20.3765 10.4408 20.9372 9.88086 21.6265 9.88086C22.3148 9.87999 22.8765 10.4408 22.8765 11.13ZM16.3765 8.38086C13.902 8.38086 13.4987 8.38741 12.3478 8.43866C11.5636 8.47547 11.038 8.58093 10.5496 8.77053C10.1156 8.93885 9.80258 9.13984 9.46901 9.47341C9.13416 9.80826 8.93352 10.1205 8.76588 10.5547C8.57584 11.0442 8.47042 11.569 8.43427 12.352C8.38252 13.4561 8.37646 13.8419 8.37646 16.3809C8.37646 18.8554 8.38302 19.2587 8.43426 20.4095C8.47109 21.1933 8.57668 21.7197 8.76582 22.2069C8.93458 22.6415 9.13599 22.9553 9.46795 23.2873C9.80412 23.623 10.1173 23.8243 10.5474 23.9903C11.0417 24.1814 11.567 24.287 12.3476 24.3231C13.4517 24.3748 13.8375 24.3809 16.3765 24.3809C18.851 24.3809 19.2543 24.3743 20.4051 24.3231C21.1872 24.2864 21.714 24.1805 22.2025 23.9915C22.6359 23.8232 22.9507 23.6211 23.2829 23.2894C23.6191 22.9527 23.82 22.6403 23.9862 22.2092C24.1768 21.7167 24.2826 21.1907 24.3187 20.4098C24.3704 19.3057 24.3765 18.9198 24.3765 16.3809C24.3765 13.9064 24.3699 13.5031 24.3187 12.3522C24.2819 11.5699 24.176 11.0423 23.9868 10.554C23.8189 10.1212 23.6172 9.80721 23.2839 9.47341C22.9485 9.13801 22.6371 8.93779 22.2026 8.77028C21.7135 8.5804 21.1879 8.47482 20.4053 8.43867C19.3013 8.38691 18.9154 8.38086 16.3765 8.38086ZM16.3765 6.38086C19.0931 6.38086 19.4323 6.39086 20.499 6.44086C21.5631 6.49003 22.289 6.65836 22.9265 6.90586C23.5856 7.16003 24.1423 7.50336 24.6981 8.05919C25.2531 8.61503 25.5965 9.17336 25.8515 9.83086C26.0981 10.4675 26.2665 11.1942 26.3165 12.2584C26.364 13.325 26.3765 13.6642 26.3765 16.3809C26.3765 19.0976 26.3665 19.4367 26.3165 20.5034C26.2673 21.5676 26.0981 22.2934 25.8515 22.9309C25.5973 23.5901 25.2531 24.1467 24.6981 24.7026C24.1423 25.2576 23.5831 25.6009 22.9265 25.8559C22.289 26.1026 21.5631 26.2709 20.499 26.3209C19.4323 26.3684 19.0931 26.3809 16.3765 26.3809C13.6598 26.3809 13.3206 26.3709 12.254 26.3209C11.1898 26.2717 10.4648 26.1026 9.82647 25.8559C9.16813 25.6017 8.61063 25.2576 8.0548 24.7026C7.49897 24.1467 7.15646 23.5876 6.90146 22.9309C6.65396 22.2934 6.48647 21.5676 6.43647 20.5034C6.38897 19.4367 6.37646 19.0976 6.37646 16.3809C6.37646 13.6642 6.38647 13.325 6.43647 12.2584C6.48563 11.1934 6.65396 10.4684 6.90146 9.83086C7.15562 9.17253 7.49897 8.61503 8.0548 8.05919C8.61063 7.50336 9.16897 7.16086 9.82647 6.90586C10.464 6.65836 11.189 6.49086 12.254 6.44086C13.3206 6.39336 13.6598 6.38086 16.3765 6.38086Z" fill="#2D88D7"/>
</svg>
