<svg width="33" height="33" viewBox="0 0 33 33" fill="none" xmlns="http://www.w3.org/2000/svg">
<path d="M16.1265 13.6809C17.0436 12.7441 18.2376 12.1309 19.6265 12.1309C22.664 12.1309 25.1265 14.5933 25.1265 17.6309V25.1309H23.1265V17.6309C23.1265 15.6979 21.5595 14.1309 19.6265 14.1309C17.6935 14.1309 16.1265 15.6979 16.1265 17.6309V25.1309H14.1265V12.6309H16.1265V13.6809ZM9.12646 10.6309C8.29803 10.6309 7.62646 9.95929 7.62646 9.13086C7.62646 8.30243 8.29803 7.63086 9.12646 7.63086C9.95488 7.63086 10.6265 8.30243 10.6265 9.13086C10.6265 9.95929 9.95488 10.6309 9.12646 10.6309ZM8.12646 12.6309H10.1265V25.1309H8.12646V12.6309Z" fill="#2D88D7"/>
</svg>
