<svg width="33" height="33" viewBox="0 0 33 33" fill="none" xmlns="http://www.w3.org/2000/svg">
<path d="M24.268 11.3757C24.1918 11.0778 23.9763 10.8531 23.7295 10.7837C23.291 10.6615 21.1621 10.3809 16.6621 10.3809C12.1621 10.3809 10.0336 10.6616 9.59338 10.7841C9.34889 10.8521 9.13343 11.0768 9.05623 11.3757C8.94743 11.8001 8.66211 13.5768 8.66211 16.3809C8.66211 19.1849 8.94743 20.9617 9.05653 21.3873C9.13239 21.684 9.34789 21.9087 9.59364 21.9777C10.0336 22.1002 12.1621 22.3809 16.6621 22.3809C21.1621 22.3809 23.291 22.1003 23.7308 21.9777C23.9753 21.9097 24.1908 21.685 24.268 21.3861C24.3768 20.9617 24.6621 19.1809 24.6621 16.3809C24.6621 13.5809 24.3768 11.8001 24.268 11.3757ZM26.2053 10.879C26.6621 12.6609 26.6621 16.3809 26.6621 16.3809C26.6621 16.3809 26.6621 20.1009 26.2053 21.8827C25.9508 22.8682 25.2081 23.6427 24.2667 23.9045C22.5582 24.3809 16.6621 24.3809 16.6621 24.3809C16.6621 24.3809 10.7695 24.3809 9.0575 23.9045C8.11259 23.6391 7.36992 22.8645 7.11887 21.8827C6.66211 20.1009 6.66211 16.3809 6.66211 16.3809C6.66211 16.3809 6.66211 12.6609 7.11887 10.879C7.3734 9.89359 8.11608 9.11904 9.0575 8.85722C10.7695 8.38086 16.6621 8.38086 16.6621 8.38086C16.6621 8.38086 22.5582 8.38086 24.2667 8.85722C25.2116 9.12268 25.9543 9.89722 26.2053 10.879ZM14.6621 19.8809V12.8809L20.6621 16.3809L14.6621 19.8809Z" fill="#2D88D7"/>
</svg>
