<svg width="49" height="49" viewBox="0 0 49 49" fill="none" xmlns="http://www.w3.org/2000/svg">
<rect x="0.500977" y="0.533447" width="48" height="48" rx="4" fill="#2D88D7"/>
<g clip-path="url(#clip0_49_7860)">
<path d="M24.501 19.4707C18.22 19.4707 15.583 25.1191 15.583 25.2363C15.583 25.3535 18.22 31.002 24.501 31.002C30.7819 31.002 33.4189 25.3535 33.4189 25.2363C33.4189 25.1191 30.7819 19.4707 24.501 19.4707Z" stroke="white" stroke-width="1.5" stroke-linecap="round" stroke-linejoin="round"/>
<path d="M17.2544 22.7519L14.9165 20.4141" stroke="white" stroke-width="1.5" stroke-linecap="round" stroke-linejoin="round"/>
<path d="M21.7032 19.8808L20.7502 16.7979" stroke="white" stroke-width="1.5" stroke-linecap="round" stroke-linejoin="round"/>
<path d="M31.7476 22.7519L34.0853 20.4141" stroke="white" stroke-width="1.5" stroke-linecap="round" stroke-linejoin="round"/>
<path d="M27.2986 19.8808L28.2516 16.7979" stroke="white" stroke-width="1.5" stroke-linecap="round" stroke-linejoin="round"/>
<path d="M23.9191 27.7781C25.3226 28.0995 26.7209 27.2223 27.0423 25.8188C27.3637 24.4154 26.4864 23.0171 25.083 22.6957C23.6795 22.3743 22.2812 23.2515 21.9598 24.655C21.6384 26.0585 22.5156 27.4568 23.9191 27.7781Z" stroke="white" stroke-width="1.5" stroke-linecap="round" stroke-linejoin="round"/>
</g>
<defs>
<clipPath id="clip0_49_7860">
<rect width="21" height="21" fill="white" transform="translate(14.001 14.0334)"/>
</clipPath>
</defs>
</svg>
