<svg width="49" height="49" viewBox="0 0 49 49" fill="none" xmlns="http://www.w3.org/2000/svg">
<rect x="0.288086" y="0.533447" width="48" height="48" rx="4" fill="#2D88D7"/>
<g clip-path="url(#clip0_49_7880)">
<path d="M28.0381 16.2834H30.2881C30.6859 16.2834 31.0675 16.4415 31.3487 16.7228C31.63 17.0041 31.7881 17.3856 31.7881 17.7834V32.7834C31.7881 33.1812 31.63 33.5628 31.3487 33.8441C31.0675 34.1253 30.6859 34.2834 30.2881 34.2834H18.2881C17.8903 34.2834 17.5087 34.1253 17.2274 33.8441C16.9461 33.5628 16.7881 33.1812 16.7881 32.7834V17.7834C16.7881 17.3856 16.9461 17.0041 17.2274 16.7228C17.5087 16.4415 17.8903 16.2834 18.2881 16.2834H20.5381" stroke="white" stroke-width="1.5" stroke-linecap="round" stroke-linejoin="round"/>
<path d="M26.5381 14.7834H22.0381C21.2097 14.7834 20.5381 15.455 20.5381 16.2834V17.0334C20.5381 17.8619 21.2097 18.5334 22.0381 18.5334H26.5381C27.3665 18.5334 28.0381 17.8619 28.0381 17.0334V16.2834C28.0381 15.455 27.3665 14.7834 26.5381 14.7834Z" stroke="white" stroke-width="1.5" stroke-linecap="round" stroke-linejoin="round"/>
<path d="M23.2422 21.8484C22.8865 21.8484 22.5981 22.1367 22.5981 22.4925V24.304H20.7866C20.4309 24.304 20.1426 24.5923 20.1426 24.948V27.0413C20.1426 27.397 20.4309 27.6854 20.7866 27.6854H22.5981V29.4968C22.5981 29.8524 22.8865 30.1409 23.2422 30.1409H25.3354C25.6912 30.1409 25.9795 29.8524 25.9795 29.4968V27.6854H27.791C28.1467 27.6854 28.4351 27.397 28.4351 27.0413V24.948C28.4351 24.5923 28.1467 24.304 27.791 24.304H25.9795V22.4925C25.9795 22.1367 25.6912 21.8484 25.3354 21.8484H23.2422Z" stroke="white" stroke-width="1.5" stroke-linecap="round" stroke-linejoin="round"/>
</g>
<defs>
<clipPath id="clip0_49_7880">
<rect width="21" height="21" fill="white" transform="translate(13.7881 14.0334)"/>
</clipPath>
</defs>
</svg>
